<svg xmlns="http://www.w3.org/2000/svg" width="61.25" height="49" viewBox="0 0 61.25 49"><path d="M58.188,0H3.063A3.063,3.063,0,0,0,0,3.063V36.75a3.063,3.063,0,0,0,3.063,3.063H58.188A3.063,3.063,0,0,0,61.25,36.75V3.063A3.063,3.063,0,0,0,58.188,0Zm0,36.75H3.063V3.063H58.188ZM51.3,45.938H9.953a.766.766,0,0,0-.766.766v1.531A.766.766,0,0,0,9.953,49H51.3a.766.766,0,0,0,.766-.766V46.7A.766.766,0,0,0,51.3,45.938ZM22.969,30.625c2.536,0,4.594-1.371,4.594-3.062V17.146l9.188-3.591v8.074a6.689,6.689,0,0,0-1.531-.191c-2.536,0-4.594,1.371-4.594,3.063s2.058,3.063,4.594,3.063,4.594-1.371,4.594-3.062V10.719a1.531,1.531,0,0,0-1.992-1.459l-12.25,4.522A1.531,1.531,0,0,0,24.5,15.241v9.451a6.689,6.689,0,0,0-1.531-.191c-2.536,0-4.594,1.371-4.594,3.063S20.433,30.625,22.969,30.625Z" fill="#edc596"/></svg>