<svg xmlns="http://www.w3.org/2000/svg" width="55.125" height="49" viewBox="0 0 55.125 49"><path d="M35.219,7.656a6.125,6.125,0,1,0,6.125,6.125A6.125,6.125,0,0,0,35.219,7.656Zm0,9.188a3.063,3.063,0,1,1,3.063-3.062A3.063,3.063,0,0,1,35.219,16.844ZM16.844,7.656a6.125,6.125,0,1,0,6.125,6.125,6.125,6.125,0,0,0-6.125-6.125Zm0,9.188a3.063,3.063,0,1,1,3.063-3.062A3.062,3.062,0,0,1,16.844,16.844ZM52.664,24.5a2.457,2.457,0,0,0-1.4.439l-8.391,5.838V29.094A4.569,4.569,0,0,0,41.6,25.929,13.735,13.735,0,1,0,26.031,3.576,13.728,13.728,0,1,0,8.279,24.5H3.062A3.062,3.062,0,0,0,0,27.563v3.063a3.063,3.063,0,0,0,3.063,3.063H9.187V44.406A4.594,4.594,0,0,0,13.781,49h24.5a4.594,4.594,0,0,0,4.594-4.594V42.728l8.391,5.832a2.456,2.456,0,0,0,3.859-1.975V26.915A2.435,2.435,0,0,0,52.664,24.5ZM39.813,44.406a1.531,1.531,0,0,1-1.531,1.531h-24.5a1.531,1.531,0,0,1-1.531-1.531V30.625H3.062V27.563H38.281a1.531,1.531,0,0,1,1.531,1.531ZM35.219,24.5H16.844A10.719,10.719,0,1,1,23.981,5.852L26.031,7.7l2.05-1.846A10.7,10.7,0,1,1,35.219,24.5ZM52.063,45.384,42.875,39V34.5l9.188-6.387Z" fill="#edc596"/></svg>